<svg xmlns="http://www.w3.org/2000/svg" viewBox="0 0 120 120">
  <ellipse cx="60" cy="72" rx="32" ry="26" fill="#8b4513"/>
  <circle cx="54" cy="50" r="22" fill="#a0522d"/>
  <circle cx="36" cy="76" rx="11" ry="7" fill="#6b3410" transform="rotate(-15 36 76)"/>
  <circle cx="84" cy="76" rx="11" ry="7" fill="#6b3410" transform="rotate(15 84 76)"/>
  <circle cx="46" cy="46" r="3" fill="#1b4332"/>
  <circle cx="62" cy="46" r="3" fill="#1b4332"/>
  <circle cx="46" cy="45" r="1.5" fill="#fff"/>
  <circle cx="62" cy="45" r="1.5" fill="#fff"/>
  <polygon points="50,52 54,50 58,52 54,54" fill="#f97316"/>
  <path d="M48 60 Q54 66 62 60" fill="none" stroke="#f97316" stroke-width="2" stroke-linecap="round"/>
  <path d="M74 46 Q86 36 92 24" fill="none" stroke="#8b4513" stroke-width="3" stroke-linecap="round"/>
  <ellipse cx="92" cy="22" rx="5" ry="8" fill="#8b4513" transform="rotate(20 92 22)"/>
  <path d="M86 30 Q94 28 100 32" fill="none" stroke="#a0522d" stroke-width="2" stroke-linecap="round"/>
  <circle cx="26" cy="62" r="4" fill="#6b3410"/>
  <circle cx="24" cy="60" r="2" fill="#6b3410"/>
  <circle cx="30" cy="60" r="6" fill="#dc2626" opacity="0.3"/>
  <circle cx="40" cy="56" r="5" fill="#dc2626" opacity="0.2"/>
</svg>
